<svg width="16" height="16" viewBox="0 0 16 16" fill="none" xmlns="http://www.w3.org/2000/svg">
<path d="M15.1716 0.82875C14.6154 0.277969 13.8904 0 13.1685 0C12.442 0 11.7201 0.277812 11.1691 0.828438L10.0288 1.96906L9.23634 1.17656C8.57634 0.515313 7.42196 0.515313 6.76165 1.17656L3.46852 4.46875C3.17555 4.76172 3.17555 5.23625 3.46852 5.52938C3.6154 5.67812 3.80602 5.75 3.99977 5.75C4.19352 5.75 4.38352 5.67675 4.53009 5.53028L7.82384 2.23653C7.92149 2.13888 8.07971 2.13888 8.17727 2.23653L8.96977 3.02903L2.93696 9.0625C1.29634 10.7031 0.261961 12.8563 0.00414884 15.1594C-0.0466012 15.6094 0.307649 16 0.749149 16C0.924774 16 4.1904 15.7812 6.90915 13.0625L15.1435 4.82812C16.2748 3.72187 16.2748 1.93406 15.1716 0.82875ZM5.84665 12.0031C4.6904 13.1594 3.22165 13.9681 1.63415 14.3353C2.03009 12.75 2.83852 11.2812 3.99352 10.125L6.27884 7.83969L8.15915 9.71875L5.84665 12.0031ZM14.1091 3.76875L9.21852 8.65938L7.33727 6.78125L12.2279 1.89062C12.4841 1.63688 12.8154 1.5 13.1716 1.5C13.5279 1.5 13.8591 1.63672 14.1091 1.89062C14.3631 2.14062 14.4998 2.4725 14.4998 2.82812C14.4998 3.18375 14.3623 3.51562 14.1091 3.76875Z" fill="black"/>
</svg>
